<svg xmlns="http://www.w3.org/2000/svg" version="1.1" xmlns:xlink="http://www.w3.org/1999/xlink" xmlns:svgjs="http://svgjs.com/svgjs" width="512" height="512" x="0" y="0" viewBox="0 0 32 32" style="enable-background:new 0 0 512 512" xml:space="preserve" class=""><g><path fill="#FE884B" fill-rule="evenodd" d="M16 28c6.627 0 12-5.373 12-12S22.627 4 16 4 4 9.373 4 16s5.373 12 12 12zm6.179-16.642a.4.4 0 0 0-.358-.716l-3 1.5a.4.4 0 0 0 .052.738l3 1a.4.4 0 0 0 .253-.76l-2.083-.694zm.406 11.2C21.15 20.414 18.705 19 15.93 19s-5.22 1.413-6.655 3.559c-.129.192.014.441.245.441h12.82c.23 0 .373-.25.245-.441zM9.642 10.822a.4.4 0 0 0 .18.537l2.135 1.068-2.084.695a.4.4 0 0 0 .253.759l3-1a.4.4 0 0 0 .053-.738l-3-1.5a.4.4 0 0 0-.537.18z" clip-rule="evenodd" data-original="#9c88ff"></path></g></svg>