<svg xmlns="http://www.w3.org/2000/svg" version="1.1" xmlns:xlink="http://www.w3.org/1999/xlink" xmlns:svgjs="http://svgjs.com/svgjs" width="512" height="512" x="0" y="0" viewBox="0 0 32 32" style="enable-background:new 0 0 512 512" xml:space="preserve" class=""><g><path fill="#73E363" fill-rule="evenodd" d="M16 28c6.627 0 12-5.373 12-12S22.627 4 16 4 4 9.373 4 16s5.373 12 12 12zm-4.5-14a1.5 1.5 0 1 0 0-3 1.5 1.5 0 0 0 0 3zm9 0a1.5 1.5 0 1 0 0-3 1.5 1.5 0 0 0 0 3zm-4.833 3.778a.4.4 0 0 1 .555-.11l1.5 1a.4.4 0 0 1 .06.615l-.716.717.717.717a.4.4 0 0 1-.061.616l-1.5 1a.4.4 0 1 1-.444-.666l1.094-.73-.655-.654a.4.4 0 0 1 0-.566l.655-.655-1.094-.73a.4.4 0 0 1-.11-.554z" clip-rule="evenodd" data-original="#ff6b6b" class=""></path></g></svg>